HIERARCHY
ROOT Hips
{
	OFFSET 0.000000 97.167313 0.000000
	CHANNELS 6 Xposition Yposition Zposition Xrotation Yrotation Zrotation
	JOINT Spine
	{
		OFFSET 0.000000 13.784798 0.064400
		CHANNELS 3 Xrotation Yrotation Zrotation
		JOINT Spine1
		{
			OFFSET 0.000000 12.037903 0.404700
			CHANNELS 3 Xrotation Yrotation Zrotation
			JOINT Spine2
			{
				OFFSET 0.000000 17.795601 0.420200
				CHANNELS 3 Xrotation Yrotation Zrotation
				JOINT Neck
				{
					OFFSET 0.000000 39.131302 11.954600
					CHANNELS 3 Xrotation Yrotation Zrotation
					JOINT Head
					{
						OFFSET 0.000000 14.456192 15.627699
						CHANNELS 3 Xrotation Yrotation Zrotation
						JOINT HeadTop_End
						{
							OFFSET 0.000000 15.703506 7.603401
							CHANNELS 3 Xrotation Yrotation Zrotation
							End Site
							{
								OFFSET 0.000000 17.447403 0.000000
							}
						}
					}
				}
				JOINT LeftShoulder
				{
					OFFSET 17.399500 24.608795 1.168800
					CHANNELS 3 Xrotation Yrotation Zrotation
					JOINT LeftArm
					{
						OFFSET 18.980635 5.765305 1.818600
						CHANNELS 3 Xrotation Yrotation Zrotation
						JOINT LeftForeArm
						{
							OFFSET 49.290169 0.000000 0.000000
							CHANNELS 3 Xrotation Yrotation Zrotation
							JOINT LeftHand
							{
								OFFSET 31.562012 0.000000 0.000000
								CHANNELS 3 Xrotation Yrotation Zrotation
								JOINT LeftHandThumb1
								{
									OFFSET 6.133995 -4.388519 7.076070
									CHANNELS 3 Xrotation Yrotation Zrotation
									JOINT LeftHandThumb2
									{
										OFFSET 6.037666 -3.485840 3.485847
										CHANNELS 3 Xrotation Yrotation Zrotation
										JOINT LeftHandThumb3
										{
											OFFSET 6.496506 -3.750763 3.750761
											CHANNELS 3 Xrotation Yrotation Zrotation
											JOINT LeftHandThumb4
											{
												OFFSET 5.616882 -3.242905 3.242910
												CHANNELS 3 Xrotation Yrotation Zrotation
												End Site
												{
													OFFSET -1.254608 7.132141 0.375429
												}
											}
										}
									}
								}
								JOINT LeftHandPinky1
								{
									OFFSET 18.920792 -0.453171 -11.426712
									CHANNELS 3 Xrotation Yrotation Zrotation
									JOINT LeftHandPinky2
									{
										OFFSET 4.919586 0.000000 0.000000
										CHANNELS 3 Xrotation Yrotation Zrotation
										JOINT LeftHandPinky3
										{
											OFFSET 5.233047 0.000000 0.000000
											CHANNELS 3 Xrotation Yrotation Zrotation
											JOINT LeftHandPinky4
											{
												OFFSET 5.571716 0.000000 0.000000
												CHANNELS 3 Xrotation Yrotation Zrotation
												End Site
												{
													OFFSET -3.459808 4.342407 -0.466164
												}
											}
										}
									}
								}
								JOINT LeftHandRing1
								{
									OFFSET 22.726120 -0.094986 -6.500475
									CHANNELS 3 Xrotation Yrotation Zrotation
									JOINT LeftHandRing2
									{
										OFFSET 6.408615 0.000000 0.000000
										CHANNELS 3 Xrotation Yrotation Zrotation
										JOINT LeftHandRing3
										{
											OFFSET 6.150223 0.000000 0.000000
											CHANNELS 3 Xrotation Yrotation Zrotation
											JOINT LeftHandRing4
											{
												OFFSET 6.145386 0.000000 0.000000
												CHANNELS 3 Xrotation Yrotation Zrotation
												End Site
												{
													OFFSET -3.671402 4.923981 -0.202372
												}
											}
										}
									}
								}
								JOINT LeftHandMiddle1
								{
									OFFSET 23.373947 0.000000 0.000001
									CHANNELS 3 Xrotation Yrotation Zrotation
									JOINT LeftHandMiddle2
									{
										OFFSET 6.996567 0.000000 0.000000
										CHANNELS 3 Xrotation Yrotation Zrotation
										JOINT LeftHandMiddle3
										{
											OFFSET 7.015945 0.000000 0.000000
											CHANNELS 3 Xrotation Yrotation Zrotation
											JOINT LeftHandMiddle4
											{
												OFFSET 7.721573 0.000000 0.000000
												CHANNELS 3 Xrotation Yrotation Zrotation
												End Site
												{
													OFFSET -4.651108 6.158463 0.251582
												}
											}
										}
									}
								}
								JOINT LeftHandIndex1
								{
									OFFSET 21.310577 -0.490082 6.209344
									CHANNELS 3 Xrotation Yrotation Zrotation
									JOINT LeftHandIndex2
									{
										OFFSET 7.536453 0.000000 0.000000
										CHANNELS 3 Xrotation Yrotation Zrotation
										JOINT LeftHandIndex3
										{
											OFFSET 7.512344 0.000000 0.000000
											CHANNELS 3 Xrotation Yrotation Zrotation
											JOINT LeftHandIndex4
											{
												OFFSET 10.212402 0.000000 0.000001
												CHANNELS 3 Xrotation Yrotation Zrotation
												End Site
												{
													OFFSET -5.180801 8.690506 1.388433
												}
											}
										}
									}
								}
							}
						}
					}
				}
				JOINT RightShoulder
				{
					OFFSET -17.399500 24.608795 1.168800
					CHANNELS 3 Xrotation Yrotation Zrotation
					JOINT RightArm
					{
						OFFSET -18.980635 5.765305 1.818600
						CHANNELS 3 Xrotation Yrotation Zrotation
						JOINT RightForeArm
						{
							OFFSET -49.290169 0.000000 0.000000
							CHANNELS 3 Xrotation Yrotation Zrotation
							JOINT RightHand
							{
								OFFSET -31.562012 0.000000 0.000000
								CHANNELS 3 Xrotation Yrotation Zrotation
								JOINT RightHandThumb1
								{
									OFFSET -6.133995 -4.388519 7.076070
									CHANNELS 3 Xrotation Yrotation Zrotation
									JOINT RightHandThumb2
									{
										OFFSET -6.037666 -3.485840 3.485847
										CHANNELS 3 Xrotation Yrotation Zrotation
										JOINT RightHandThumb3
										{
											OFFSET -6.496506 -3.750763 3.750761
											CHANNELS 3 Xrotation Yrotation Zrotation
											JOINT RightHandThumb4
											{
												OFFSET -5.616882 -3.242905 3.242910
												CHANNELS 3 Xrotation Yrotation Zrotation
												End Site
												{
													OFFSET 1.254608 7.132141 0.375429
												}
											}
										}
									}
								}
								JOINT RightHandIndex1
								{
									OFFSET -21.310577 -0.490082 6.209344
									CHANNELS 3 Xrotation Yrotation Zrotation
									JOINT RightHandIndex2
									{
										OFFSET -7.536453 0.000000 0.000000
										CHANNELS 3 Xrotation Yrotation Zrotation
										JOINT RightHandIndex3
										{
											OFFSET -7.512344 0.000000 0.000000
											CHANNELS 3 Xrotation Yrotation Zrotation
											JOINT RightHandIndex4
											{
												OFFSET -10.212402 0.000000 0.000001
												CHANNELS 3 Xrotation Yrotation Zrotation
												End Site
												{
													OFFSET 5.180801 8.690506 1.388433
												}
											}
										}
									}
								}
								JOINT RightHandMiddle1
								{
									OFFSET -23.373947 0.000000 0.000001
									CHANNELS 3 Xrotation Yrotation Zrotation
									JOINT RightHandMiddle2
									{
										OFFSET -6.996567 0.000000 0.000000
										CHANNELS 3 Xrotation Yrotation Zrotation
										JOINT RightHandMiddle3
										{
											OFFSET -7.015945 0.000000 0.000000
											CHANNELS 3 Xrotation Yrotation Zrotation
											JOINT RightHandMiddle4
											{
												OFFSET -7.721573 0.000000 0.000000
												CHANNELS 3 Xrotation Yrotation Zrotation
												End Site
												{
													OFFSET 4.651108 6.158463 0.251582
												}
											}
										}
									}
								}
								JOINT RightHandRing1
								{
									OFFSET -22.726120 -0.094986 -6.500475
									CHANNELS 3 Xrotation Yrotation Zrotation
									JOINT RightHandRing2
									{
										OFFSET -6.408615 0.000000 0.000000
										CHANNELS 3 Xrotation Yrotation Zrotation
										JOINT RightHandRing3
										{
											OFFSET -6.150223 0.000000 0.000000
											CHANNELS 3 Xrotation Yrotation Zrotation
											JOINT RightHandRing4
											{
												OFFSET -6.145386 0.000000 0.000000
												CHANNELS 3 Xrotation Yrotation Zrotation
												End Site
												{
													OFFSET 3.671402 4.923981 -0.202372
												}
											}
										}
									}
								}
								JOINT RightHandPinky1
								{
									OFFSET -18.920792 -0.453171 -11.426712
									CHANNELS 3 Xrotation Yrotation Zrotation
									JOINT RightHandPinky2
									{
										OFFSET -4.919586 0.000000 0.000000
										CHANNELS 3 Xrotation Yrotation Zrotation
										JOINT RightHandPinky3
										{
											OFFSET -5.233047 0.000000 0.000000
											CHANNELS 3 Xrotation Yrotation Zrotation
											JOINT RightHandPinky4
											{
												OFFSET -5.571716 0.000000 0.000000
												CHANNELS 3 Xrotation Yrotation Zrotation
												End Site
												{
													OFFSET 3.459808 4.342407 -0.466164
												}
											}
										}
									}
								}
							}
						}
					}
				}
			}
		}
	}
	JOINT LeftUpLeg
	{
		OFFSET 19.899099 -7.885101 -3.429500
		CHANNELS 3 Xrotation Yrotation Zrotation
		JOINT LeftLeg
		{
			OFFSET 1.745560 -36.997807 10.304700
			CHANNELS 3 Xrotation Yrotation Zrotation
			JOINT LeftFoot
			{
				OFFSET -1.745558 -29.803308 -13.615400
				CHANNELS 3 Xrotation Yrotation Zrotation
				JOINT LeftToeBase
				{
					OFFSET 1.181900 -18.539904 15.226099
					CHANNELS 3 Xrotation Yrotation Zrotation
					JOINT LeftToe_End
					{
						OFFSET -0.863701 1.402801 16.534700
						CHANNELS 3 Xrotation Yrotation Zrotation
						End Site
						{
							OFFSET 0.000000 16.616566 0.000000
						}
					}
				}
			}
		}
	}
	JOINT RightUpLeg
	{
		OFFSET -19.899099 -7.885101 -3.429500
		CHANNELS 3 Xrotation Yrotation Zrotation
		JOINT RightLeg
		{
			OFFSET -1.745560 -36.997807 10.304700
			CHANNELS 3 Xrotation Yrotation Zrotation
			JOINT RightFoot
			{
				OFFSET 1.745558 -29.803308 -13.615400
				CHANNELS 3 Xrotation Yrotation Zrotation
				JOINT RightToeBase
				{
					OFFSET -1.181900 -18.539904 15.226099
					CHANNELS 3 Xrotation Yrotation Zrotation
					JOINT RightToe_End
					{
						OFFSET 0.863701 1.402801 16.534700
						CHANNELS 3 Xrotation Yrotation Zrotation
						End Site
						{
							OFFSET 0.000000 16.616566 0.000000
						}
					}
				}
			}
		}
	}
}
MOTION
Frames: 6
Frame Time: 0.033333
-0.469723 73.600311 -2.188076 -12.294083 -46.285173 -2.307739 7.623651 4.789503 -1.157142 1.894896 0.241262 -0.839689 1.909832 0.233969 -0.806232 2.452286 13.478530 4.248747 23.796367 20.096992 -5.794367 -0.000002 0.000000 -0.000000 -0.521386 2.826245 -4.965265 -49.393882 10.128741 -54.062846 0.000008 -120.183968 -0.000004 -3.144567 -3.180650 -10.081145 -5.830215 -11.548359 -6.472264 10.486168 43.698632 3.085452 -0.718703 7.573666 27.567569 0.000001 0.000001 0.000000 -4.170128 8.459320 -41.781681 5.088145 5.801293 -82.495073 8.597672 5.168342 -118.037936 -0.000000 -0.000001 -0.000006 0.335708 4.666279 -36.677641 8.127613 5.391422 -112.933087 3.093277 5.162370 -61.837862 -0.000000 0.000002 0.000003 -0.520135 3.560166 -37.213036 6.190268 5.841252 -93.329221 2.068281 4.467050 -49.671697 0.000001 0.000000 0.000004 0.300547 3.118253 -43.063445 5.605785 5.845938 -87.593194 1.999036 4.407507 -48.776737 -0.000001 0.000003 0.000002 2.435920 9.329273 -3.366949 -52.718521 4.597661 78.487773 -0.000002 119.655762 -0.000003 -12.542179 11.827358 31.522689 -6.749810 12.663811 8.176694 9.857254 -44.490087 -3.902331 -1.101894 -12.347704 -28.971921 -0.000005 -0.000001 0.000004 -0.284997 -2.111013 42.200542 4.248995 -4.639292 84.966290 1.435564 -3.364877 46.199533 -0.000000 -0.000003 -0.000002 -0.686777 -2.615091 34.007041 5.040835 -4.641375 94.730448 1.513860 -3.438122 47.519108 -0.000000 -0.000000 -0.000006 0.358295 -4.231802 36.307097 6.316223 -4.352243 110.890122 2.194766 -3.954152 58.051595 -0.000000 0.000001 -0.000003 -4.991413 -7.324446 41.863971 4.058194 -4.618579 82.602600 6.649432 -4.210392 115.351377 0.000003 0.000005 0.000003 -26.802330 5.221508 19.642046 50.878363 -8.624280 3.876912 -16.731972 -5.748982 -20.900119 -1.594040 0.000005 -0.000001 0.000000 -0.000002 0.000000 -11.753416 -10.736628 -37.661714 59.696468 3.473829 -3.909119 -33.671094 -15.562227 21.673910 -0.033135 -0.000012 0.000006 0.000000 0.000001 -0.000001 
-0.000544 73.616005 -2.324555 -9.044896 -46.593133 -1.456924 8.800773 4.928767 -1.590232 2.202239 0.300976 -1.010688 2.217055 0.294801 -0.978533 0.884445 13.879049 3.839904 18.497708 21.486600 -6.680987 -0.000002 -0.000000 -0.000000 0.735362 1.520850 -7.332232 -48.050651 10.044812 -54.178676 0.000027 -118.948332 0.000007 -0.977710 -5.222665 -11.774265 -5.930612 -11.602239 -6.544989 10.513759 43.750531 3.069658 -0.584857 7.816167 27.541283 0.000000 0.000003 -0.000001 -3.948283 8.513850 -42.070048 5.176928 5.812230 -83.372574 8.626663 5.152846 -118.360416 -0.000001 0.000001 -0.000004 0.369801 4.747061 -37.509196 8.143766 5.384599 -113.105098 3.076450 5.153362 -61.650613 -0.000001 0.000002 0.000000 -0.510475 3.611076 -37.665358 6.264115 5.836515 -94.055134 2.088738 4.484285 -49.933887 0.000001 -0.000000 0.000004 0.176625 3.143793 -43.501669 5.640705 5.847300 -87.935960 1.992312 4.401618 -48.689133 -0.000000 0.000003 0.000002 1.799212 7.848605 -5.113945 -52.738650 7.251858 81.613951 0.000045 121.912361 -0.000009 -9.716076 13.017610 29.669946 -7.159558 13.181436 8.091907 9.858371 -44.490852 -3.901628 -1.057139 -12.448331 -28.971822 0.000002 -0.000002 0.000004 -0.497775 -2.014767 41.756546 4.258095 -4.640083 85.078810 1.501453 -3.426723 47.311617 0.000001 -0.000002 0.000003 -0.706578 -2.602141 34.197784 5.054611 -4.640232 94.900861 1.549502 -3.470364 48.110609 -0.000001 -0.000001 -0.000002 0.327514 -4.187115 36.215012 6.348540 -4.339801 111.316606 2.259178 -3.993511 58.981026 0.000002 -0.000000 0.000000 -5.073529 -7.312423 41.794365 4.071812 -4.620317 82.771484 6.679698 -4.195965 115.764303 0.000003 0.000004 0.000001 -29.905324 3.768874 20.839126 51.622116 -7.954680 3.980677 -16.559324 -5.672161 -21.345195 -1.594040 0.000010 -0.000001 0.000000 -0.000000 0.000000 -14.601879 -10.536464 -36.126561 59.141905 3.537781 -3.155236 -32.433874 -15.003101 20.843866 -0.031458 0.000011 0.000003 0.000000 0.000000 0.000000 
0.441390 73.419220 -2.211242 -5.924822 -46.488959 -0.197477 9.720185 4.996120 -2.027512 2.443363 0.330710 -1.149957 2.458034 0.324943 -1.118580 -0.525344 14.205347 3.389206 13.726874 22.494972 -7.625360 0.000001 0.000000 0.000000 1.828256 1.502433 -9.742598 -45.662174 7.905140 -57.660273 0.000013 -116.345401 -0.000007 2.381935 -5.992970 -13.632384 -6.072833 -11.719185 -6.548997 10.526689 43.774898 3.062208 -0.479886 8.005677 27.520412 -0.000001 -0.000000 0.000001 -3.826341 8.608420 -42.616047 5.270431 5.822271 -84.295271 8.674545 5.126816 -118.894838 0.000001 -0.000003 -0.000003 0.405785 4.828952 -38.357639 8.174252 5.371535 -113.430304 3.049700 5.138889 -61.352413 -0.000000 0.000001 -0.000002 -0.501325 3.657419 -38.077625 6.348707 5.829932 -94.887419 2.114728 4.505940 -50.265520 0.000001 0.000000 0.000008 0.112286 3.166912 -43.820865 5.680746 5.848597 -88.329045 1.994060 4.403152 -48.711943 -0.000001 -0.000000 -0.000001 1.512506 6.998107 -5.674280 -51.664879 10.911728 83.892823 -0.000004 122.246835 0.000030 -7.631084 13.842510 27.771197 -7.310202 13.326404 8.153444 9.855931 -44.489178 -3.903162 -1.000777 -12.574407 -28.971917 -0.000001 0.000001 0.000002 -0.640333 -1.925385 41.217511 4.270439 -4.641130 85.231417 1.580959 -3.498276 48.628160 -0.000002 -0.000001 0.000001 -0.717597 -2.599948 34.359943 5.064259 -4.639377 95.020123 1.589306 -3.505601 48.764979 0.000001 0.000001 -0.000006 0.302049 -4.146716 36.039302 6.378720 -4.327940 111.715947 2.328290 -4.034168 59.968412 -0.000000 0.000001 0.000002 -5.054788 -7.231345 41.269051 4.090599 -4.622658 83.004714 6.721563 -4.175553 116.337752 0.000001 0.000003 0.000003 -32.922178 2.298733 21.336558 52.611499 -7.363071 3.956816 -16.522747 -5.662434 -21.507002 -1.594040 0.000005 -0.000001 0.000000 -0.000000 0.000000 -17.042792 -10.541770 -35.605599 58.771934 3.685886 -2.356465 -31.572133 -14.590973 20.479812 -0.029451 -0.000010 -0.000003 0.000000 -0.000001 -0.000000 
0.825028 73.136147 -1.908499 -3.504922 -46.323077 1.242860 10.549660 5.184322 -2.626744 2.628249 0.386592 -1.305758 2.642727 0.380821 -1.275546 -1.635111 14.425829 2.835944 10.049688 22.862395 -8.760227 -0.000001 -0.000000 -0.000001 2.460888 2.886084 -11.392305 -43.137842 4.536158 -63.416756 0.000048 -112.944452 0.000020 6.119622 -5.838092 -14.672674 -6.233512 -11.863729 -6.524387 10.504479 43.733298 3.074944 -0.422362 8.109140 27.508898 -0.000000 0.000002 -0.000002 -3.782901 8.700559 -43.158524 5.340041 5.828778 -84.980811 8.727888 5.097120 -119.493572 0.000001 -0.000000 -0.000001 0.432949 4.888631 -38.979732 8.206600 5.357464 -113.776383 3.030073 5.128162 -61.133103 0.000001 -0.000001 -0.000002 -0.494217 3.692185 -38.387388 6.424642 5.822973 -95.635428 2.137814 4.524979 -50.558785 -0.000000 0.000001 0.000007 0.106540 3.186727 -44.027314 5.713482 5.849457 -88.650200 2.005747 4.413353 -48.863969 -0.000001 -0.000001 0.000001 1.620717 7.234072 -5.348414 -49.464701 14.246984 85.239996 0.000050 119.789292 -0.000044 -6.483163 15.105295 25.928281 -7.446255 13.378017 8.356969 9.855026 -44.488519 -3.903711 -0.894078 -12.811228 -28.972775 0.000002 -0.000002 0.000002 -0.675267 -1.860459 40.642064 4.303575 -4.643749 85.640566 1.666843 -3.571934 50.021085 -0.000000 -0.000001 -0.000002 -0.722203 -2.615960 34.622318 5.072871 -4.638620 95.126497 1.631788 -3.542307 49.455945 0.000001 0.000000 -0.000004 0.278555 -4.110136 35.909317 6.409810 -4.315458 112.128518 2.391915 -4.070189 60.868768 -0.000001 -0.000001 0.000002 -4.925786 -7.125039 40.532429 4.118978 -4.626036 83.356585 6.777396 -4.147517 117.107104 0.000002 0.000004 0.000001 -35.157316 1.374838 21.166572 53.492368 -6.881443 3.705701 -16.646184 -5.670429 -21.317661 -1.594040 0.000005 -0.000001 -0.000000 -0.000000 0.000000 -19.034282 -10.446875 -36.091976 58.695681 3.871122 -1.872168 -31.007761 -14.241657 20.642324 -0.028027 -0.000008 0.000007 0.000000 0.000000 -0.000000 
1.135620 72.675537 -1.443688 -2.226935 -46.458875 2.238483 11.324830 5.614237 -3.221551 2.781979 0.511489 -1.448082 2.796185 0.505804 -1.420252 -2.316993 14.533024 2.144081 7.800600 22.493351 -10.034746 -0.000001 -0.000000 -0.000000 2.594504 4.832831 -12.005905 -41.457117 1.361480 -68.629502 -0.000018 -109.548427 -0.000007 9.001866 -5.751869 -14.727483 -6.398504 -11.995610 -6.538888 10.433542 43.599464 3.115581 -0.400037 8.149158 27.504504 -0.000001 0.000003 -0.000002 -3.769416 8.759864 -43.507636 5.373485 5.831603 -85.310026 8.763267 5.077042 -119.892360 0.000000 -0.000003 -0.000003 0.446900 4.918657 -39.293761 8.227700 5.348155 -114.002571 3.025585 5.125702 -61.082874 0.000000 0.000001 0.000002 -0.489092 3.716744 -38.606418 6.475615 5.817756 -96.138123 2.153654 4.537918 -50.759128 -0.000002 0.000001 0.000009 0.123780 3.205819 -44.197819 5.735180 5.849924 -88.863063 2.022140 4.427571 -49.076617 -0.000002 0.000001 -0.000001 2.039089 8.552263 -4.541857 -46.708915 16.327396 85.666398 0.000018 114.598239 0.000015 -6.525601 17.047879 23.800187 -7.744763 13.598851 8.586850 9.855598 -44.488926 -3.903366 -0.736645 -13.159099 -28.973717 -0.000003 0.000003 -0.000000 -0.608032 -1.834857 40.169603 4.365896 -4.648072 86.410014 1.749600 -3.639570 51.336672 -0.000002 -0.000001 -0.000001 -0.722580 -2.654855 35.080193 5.084294 -4.637589 95.267882 1.678122 -3.581354 50.201826 -0.000001 -0.000001 -0.000001 0.256046 -4.083619 36.041126 6.444606 -4.301189 112.591639 2.448719 -4.101245 61.665939 0.000002 0.000001 -0.000003 -4.838411 -7.056720 40.029287 4.156887 -4.630277 83.826365 6.842328 -4.113709 118.008744 0.000001 0.000001 -0.000001 -36.410984 1.155870 21.040481 54.721358 -6.722896 3.124329 -17.320067 -5.687776 -20.709543 -1.594040 0.000007 -0.000001 0.000000 -0.000002 0.000000 -20.388133 -10.027688 -37.037203 59.071875 4.213204 -1.836315 -30.774855 -14.045906 21.172523 -0.027790 0.000009 -0.000003 0.000000 0.000000 -0.000000 
1.355488 72.336670 -0.876733 -1.851065 -46.605680 2.821120 11.925917 6.200218 -3.621906 2.908083 0.677049 -1.521528 2.921931 0.671457 -1.496799 -2.497959 14.509979 1.427524 7.038146 21.473502 -11.243435 -0.000001 -0.000000 -0.000000 2.369769 6.444318 -11.811510 -41.167022 -0.654125 -71.197093 -0.000009 -107.000234 -0.000019 10.235435 -6.208225 -14.688025 -6.573991 -12.096737 -6.646150 10.321120 43.385997 3.179825 -0.393513 8.160853 27.503200 0.000001 0.000001 -0.000002 -3.764134 8.784019 -43.648850 5.379190 5.832070 -85.366334 8.772173 5.071928 -119.992955 -0.000001 0.000001 -0.000004 0.450816 4.927027 -39.381467 8.234617 5.345098 -114.076768 3.030832 5.128590 -61.141552 -0.000004 0.000001 0.000005 -0.485109 3.735524 -38.774000 6.498575 5.815242 -96.364660 2.162301 4.544961 -50.868479 0.000000 -0.000000 0.000008 0.136617 3.225298 -44.378642 5.746489 5.850133 -88.974033 2.035453 4.439030 -49.248789 -0.000000 0.000003 0.000002 2.571325 10.419019 -3.657525 -44.186758 17.161781 85.174993 -0.000064 108.191747 0.000076 -7.879028 18.965770 21.380565 -8.144836 13.993942 8.702744 9.856018 -44.489219 -3.903112 -0.579630 -13.504775 -28.973980 -0.000001 -0.000001 0.000001 -0.527076 -1.849457 40.069964 4.437716 -4.652009 87.296122 1.808131 -3.685568 52.253153 0.000000 -0.000003 -0.000001 -0.721123 -2.709196 35.694278 5.097417 -4.636354 95.430242 1.720444 -3.616121 50.876016 -0.000001 0.000003 -0.000004 0.233036 -4.068746 36.508768 6.476450 -4.287840 113.016961 2.492400 -4.124443 62.274960 -0.000002 0.000001 -0.000001 -4.916269 -7.062783 40.063902 4.194472 -4.634174 84.291972 6.897937 -4.083727 118.786702 0.000001 -0.000005 -0.000000 -36.770750 1.493611 20.801558 55.691730 -6.807512 2.439640 -18.079681 -5.805269 -19.808729 -1.594040 0.000005 -0.000001 -0.000000 -0.000000 0.000000 -20.860707 -9.647451 -38.106066 59.261098 4.392496 -2.122236 -30.583405 -13.955905 22.051481 -0.027838 0.000016 -0.000000 0.000000 0.000000 0.000000 
